<?xml version="1.0" encoding="UTF-8" standalone="no"?>
<svg
   width="24"
   height="24"
   viewBox="0 0 24 24"
   version="1.1"
   id="svg2579"
   sodipodi:docname="tabler--camera-filled.svg"
   inkscape:export-filename="camera_16x16.png"
   inkscape:export-xdpi="64"
   inkscape:export-ydpi="64"
   xmlns:inkscape="http://www.inkscape.org/namespaces/inkscape"
   xmlns:sodipodi="http://sodipodi.sourceforge.net/DTD/sodipodi-0.dtd"
   xmlns="http://www.w3.org/2000/svg"
   xmlns:svg="http://www.w3.org/2000/svg">
  <defs
     id="defs2583" />
  <sodipodi:namedview
     id="namedview2581"
     pagecolor="#ffffff"
     bordercolor="#666666"
     borderopacity="1.0"
     inkscape:showpageshadow="2"
     inkscape:pageopacity="0.0"
     inkscape:pagecheckerboard="0"
     inkscape:deskcolor="#d1d1d1"
     showgrid="false" />
  <path
     fill="currentColor"
     d="M15 3a2 2 0 0 1 1.995 1.85L17 5a1 1 0 0 0 .883.993L18 6h1a3 3 0 0 1 2.995 2.824L22 9v9a3 3 0 0 1-2.824 2.995L19 21H5a3 3 0 0 1-2.995-2.824L2 18V9a3 3 0 0 1 2.824-2.995L5 6h1a1 1 0 0 0 1-1a2 2 0 0 1 1.85-1.995L9 3zm-3 7a3 3 0 0 0-2.985 2.698l-.011.152L9 13l.004.15A3 3 0 1 0 12 10"
     id="path2577" />
</svg>
